<mxfile host="app.diagrams.net" agent="Mozilla/5.0 (Windows NT 10.0; Win64; x64) AppleWebKit/537.36 (KHTML, like Gecko) Chrome/129.0.0.0 Safari/537.36 Edg/129.0.0.0" version="24.7.17">
  <diagram name="Page-1" id="47YrY2Z1j2PKTP2Dt42Q">
    <mxGraphModel dx="1904" dy="1032" grid="1" gridSize="10" guides="1" tooltips="1" connect="1" arrows="1" fold="1" page="1" pageScale="1" pageWidth="850" pageHeight="1100" math="0" shadow="0">
      <root>
        <mxCell id="0" />
        <mxCell id="1" parent="0" />
        <mxCell id="T-HMhwfZyAStWtXB5Q8O-6" value="&lt;b&gt;Tanszék&lt;/b&gt;" style="swimlane;fontStyle=0;childLayout=stackLayout;horizontal=1;startSize=30;horizontalStack=0;resizeParent=1;resizeParentMax=0;resizeLast=0;collapsible=1;marginBottom=0;whiteSpace=wrap;html=1;" vertex="1" parent="1">
          <mxGeometry x="40" y="270" width="200" height="120" as="geometry" />
        </mxCell>
        <mxCell id="T-HMhwfZyAStWtXB5Q8O-7" value="&lt;u&gt;kód, PK&lt;/u&gt;" style="text;strokeColor=none;fillColor=none;align=left;verticalAlign=middle;spacingLeft=4;spacingRight=4;overflow=hidden;points=[[0,0.5],[1,0.5]];portConstraint=eastwest;rotatable=0;whiteSpace=wrap;html=1;" vertex="1" parent="T-HMhwfZyAStWtXB5Q8O-6">
          <mxGeometry y="30" width="200" height="30" as="geometry" />
        </mxCell>
        <mxCell id="T-HMhwfZyAStWtXB5Q8O-8" value="név, NN" style="text;strokeColor=none;fillColor=none;align=left;verticalAlign=middle;spacingLeft=4;spacingRight=4;overflow=hidden;points=[[0,0.5],[1,0.5]];portConstraint=eastwest;rotatable=0;whiteSpace=wrap;html=1;" vertex="1" parent="T-HMhwfZyAStWtXB5Q8O-6">
          <mxGeometry y="60" width="200" height="30" as="geometry" />
        </mxCell>
        <mxCell id="T-HMhwfZyAStWtXB5Q8O-9" value="kar" style="text;strokeColor=none;fillColor=none;align=left;verticalAlign=middle;spacingLeft=4;spacingRight=4;overflow=hidden;points=[[0,0.5],[1,0.5]];portConstraint=eastwest;rotatable=0;whiteSpace=wrap;html=1;" vertex="1" parent="T-HMhwfZyAStWtXB5Q8O-6">
          <mxGeometry y="90" width="200" height="30" as="geometry" />
        </mxCell>
        <mxCell id="T-HMhwfZyAStWtXB5Q8O-10" value="&lt;b&gt;Tantárgy&lt;/b&gt;" style="swimlane;fontStyle=0;childLayout=stackLayout;horizontal=1;startSize=30;horizontalStack=0;resizeParent=1;resizeParentMax=0;resizeLast=0;collapsible=1;marginBottom=0;whiteSpace=wrap;html=1;" vertex="1" parent="1">
          <mxGeometry x="600" y="160" width="180" height="150" as="geometry" />
        </mxCell>
        <mxCell id="T-HMhwfZyAStWtXB5Q8O-11" value="&lt;u&gt;neptunkód, PK&lt;/u&gt;" style="text;strokeColor=none;fillColor=none;align=left;verticalAlign=middle;spacingLeft=4;spacingRight=4;overflow=hidden;points=[[0,0.5],[1,0.5]];portConstraint=eastwest;rotatable=0;whiteSpace=wrap;html=1;" vertex="1" parent="T-HMhwfZyAStWtXB5Q8O-10">
          <mxGeometry y="30" width="180" height="30" as="geometry" />
        </mxCell>
        <mxCell id="T-HMhwfZyAStWtXB5Q8O-12" value="név, NN" style="text;strokeColor=none;fillColor=none;align=left;verticalAlign=middle;spacingLeft=4;spacingRight=4;overflow=hidden;points=[[0,0.5],[1,0.5]];portConstraint=eastwest;rotatable=0;whiteSpace=wrap;html=1;" vertex="1" parent="T-HMhwfZyAStWtXB5Q8O-10">
          <mxGeometry y="60" width="180" height="30" as="geometry" />
        </mxCell>
        <mxCell id="T-HMhwfZyAStWtXB5Q8O-13" value="kredit, NN" style="text;strokeColor=none;fillColor=none;align=left;verticalAlign=middle;spacingLeft=4;spacingRight=4;overflow=hidden;points=[[0,0.5],[1,0.5]];portConstraint=eastwest;rotatable=0;whiteSpace=wrap;html=1;" vertex="1" parent="T-HMhwfZyAStWtXB5Q8O-10">
          <mxGeometry y="90" width="180" height="30" as="geometry" />
        </mxCell>
        <mxCell id="T-HMhwfZyAStWtXB5Q8O-47" value="lezárás módja" style="text;strokeColor=none;fillColor=none;align=left;verticalAlign=middle;spacingLeft=4;spacingRight=4;overflow=hidden;points=[[0,0.5],[1,0.5]];portConstraint=eastwest;rotatable=0;whiteSpace=wrap;html=1;" vertex="1" parent="T-HMhwfZyAStWtXB5Q8O-10">
          <mxGeometry y="120" width="180" height="30" as="geometry" />
        </mxCell>
        <mxCell id="T-HMhwfZyAStWtXB5Q8O-14" value="&lt;b&gt;Oktató&lt;/b&gt;" style="swimlane;fontStyle=0;childLayout=stackLayout;horizontal=1;startSize=30;horizontalStack=0;resizeParent=1;resizeParentMax=0;resizeLast=0;collapsible=1;marginBottom=0;whiteSpace=wrap;html=1;" vertex="1" parent="1">
          <mxGeometry x="90" y="80" width="190" height="150" as="geometry" />
        </mxCell>
        <mxCell id="T-HMhwfZyAStWtXB5Q8O-15" value="&lt;u&gt;neptunkód, PK&lt;/u&gt;" style="text;strokeColor=none;fillColor=none;align=left;verticalAlign=middle;spacingLeft=4;spacingRight=4;overflow=hidden;points=[[0,0.5],[1,0.5]];portConstraint=eastwest;rotatable=0;whiteSpace=wrap;html=1;" vertex="1" parent="T-HMhwfZyAStWtXB5Q8O-14">
          <mxGeometry y="30" width="190" height="30" as="geometry" />
        </mxCell>
        <mxCell id="T-HMhwfZyAStWtXB5Q8O-16" value="név, NN" style="text;strokeColor=none;fillColor=none;align=left;verticalAlign=middle;spacingLeft=4;spacingRight=4;overflow=hidden;points=[[0,0.5],[1,0.5]];portConstraint=eastwest;rotatable=0;whiteSpace=wrap;html=1;" vertex="1" parent="T-HMhwfZyAStWtXB5Q8O-14">
          <mxGeometry y="60" width="190" height="30" as="geometry" />
        </mxCell>
        <mxCell id="T-HMhwfZyAStWtXB5Q8O-17" value="beosztás" style="text;strokeColor=none;fillColor=none;align=left;verticalAlign=middle;spacingLeft=4;spacingRight=4;overflow=hidden;points=[[0,0.5],[1,0.5]];portConstraint=eastwest;rotatable=0;whiteSpace=wrap;html=1;" vertex="1" parent="T-HMhwfZyAStWtXB5Q8O-14">
          <mxGeometry y="90" width="190" height="30" as="geometry" />
        </mxCell>
        <mxCell id="T-HMhwfZyAStWtXB5Q8O-51" value="tanszék_kód, FK" style="text;strokeColor=none;fillColor=none;align=left;verticalAlign=middle;spacingLeft=4;spacingRight=4;overflow=hidden;points=[[0,0.5],[1,0.5]];portConstraint=eastwest;rotatable=0;whiteSpace=wrap;html=1;" vertex="1" parent="T-HMhwfZyAStWtXB5Q8O-14">
          <mxGeometry y="120" width="190" height="30" as="geometry" />
        </mxCell>
        <mxCell id="T-HMhwfZyAStWtXB5Q8O-43" value="&lt;b&gt;O-TT&lt;/b&gt;" style="swimlane;fontStyle=0;childLayout=stackLayout;horizontal=1;startSize=30;horizontalStack=0;resizeParent=1;resizeParentMax=0;resizeLast=0;collapsible=1;marginBottom=0;whiteSpace=wrap;html=1;" vertex="1" parent="1">
          <mxGeometry x="330" y="190" width="190" height="120" as="geometry" />
        </mxCell>
        <mxCell id="T-HMhwfZyAStWtXB5Q8O-44" value="tanév/félév" style="text;strokeColor=none;fillColor=none;align=left;verticalAlign=middle;spacingLeft=4;spacingRight=4;overflow=hidden;points=[[0,0.5],[1,0.5]];portConstraint=eastwest;rotatable=0;whiteSpace=wrap;html=1;" vertex="1" parent="T-HMhwfZyAStWtXB5Q8O-43">
          <mxGeometry y="30" width="190" height="30" as="geometry" />
        </mxCell>
        <mxCell id="T-HMhwfZyAStWtXB5Q8O-45" value="tantárgy_neptunkód, NN FK" style="text;strokeColor=none;fillColor=none;align=left;verticalAlign=middle;spacingLeft=4;spacingRight=4;overflow=hidden;points=[[0,0.5],[1,0.5]];portConstraint=eastwest;rotatable=0;whiteSpace=wrap;html=1;" vertex="1" parent="T-HMhwfZyAStWtXB5Q8O-43">
          <mxGeometry y="60" width="190" height="30" as="geometry" />
        </mxCell>
        <mxCell id="T-HMhwfZyAStWtXB5Q8O-46" value="oktató_neptunkód, NN FK" style="text;strokeColor=none;fillColor=none;align=left;verticalAlign=middle;spacingLeft=4;spacingRight=4;overflow=hidden;points=[[0,0.5],[1,0.5]];portConstraint=eastwest;rotatable=0;whiteSpace=wrap;html=1;" vertex="1" parent="T-HMhwfZyAStWtXB5Q8O-43">
          <mxGeometry y="90" width="190" height="30" as="geometry" />
        </mxCell>
        <mxCell id="T-HMhwfZyAStWtXB5Q8O-53" style="edgeStyle=orthogonalEdgeStyle;rounded=0;orthogonalLoop=1;jettySize=auto;html=1;entryX=0;entryY=0.5;entryDx=0;entryDy=0;" edge="1" parent="1" source="T-HMhwfZyAStWtXB5Q8O-51" target="T-HMhwfZyAStWtXB5Q8O-7">
          <mxGeometry relative="1" as="geometry" />
        </mxCell>
        <mxCell id="T-HMhwfZyAStWtXB5Q8O-54" style="edgeStyle=orthogonalEdgeStyle;rounded=0;orthogonalLoop=1;jettySize=auto;html=1;entryX=1;entryY=0.5;entryDx=0;entryDy=0;" edge="1" parent="1" source="T-HMhwfZyAStWtXB5Q8O-46" target="T-HMhwfZyAStWtXB5Q8O-15">
          <mxGeometry relative="1" as="geometry" />
        </mxCell>
        <mxCell id="T-HMhwfZyAStWtXB5Q8O-55" style="edgeStyle=orthogonalEdgeStyle;rounded=0;orthogonalLoop=1;jettySize=auto;html=1;entryX=0;entryY=0.5;entryDx=0;entryDy=0;" edge="1" parent="1" source="T-HMhwfZyAStWtXB5Q8O-45" target="T-HMhwfZyAStWtXB5Q8O-11">
          <mxGeometry relative="1" as="geometry" />
        </mxCell>
        <mxCell id="T-HMhwfZyAStWtXB5Q8O-69" value="Oktató" style="shape=table;startSize=30;container=1;collapsible=0;childLayout=tableLayout;strokeColor=default;fontSize=16;fontStyle=1" vertex="1" parent="1">
          <mxGeometry x="30" y="640" width="410" height="70" as="geometry" />
        </mxCell>
        <mxCell id="T-HMhwfZyAStWtXB5Q8O-70" value="" style="shape=tableRow;horizontal=0;startSize=0;swimlaneHead=0;swimlaneBody=0;strokeColor=inherit;top=0;left=0;bottom=0;right=0;collapsible=0;dropTarget=0;fillColor=none;points=[[0,0.5],[1,0.5]];portConstraint=eastwest;fontSize=16;" vertex="1" parent="T-HMhwfZyAStWtXB5Q8O-69">
          <mxGeometry y="30" width="410" height="40" as="geometry" />
        </mxCell>
        <mxCell id="T-HMhwfZyAStWtXB5Q8O-71" value="neptunkód, PK" style="shape=partialRectangle;html=1;whiteSpace=wrap;connectable=0;strokeColor=inherit;overflow=hidden;fillColor=none;top=0;left=0;bottom=0;right=0;pointerEvents=1;fontSize=16;" vertex="1" parent="T-HMhwfZyAStWtXB5Q8O-70">
          <mxGeometry width="110" height="40" as="geometry">
            <mxRectangle width="110" height="40" as="alternateBounds" />
          </mxGeometry>
        </mxCell>
        <mxCell id="T-HMhwfZyAStWtXB5Q8O-72" value="név, NN" style="shape=partialRectangle;html=1;whiteSpace=wrap;connectable=0;strokeColor=inherit;overflow=hidden;fillColor=none;top=0;left=0;bottom=0;right=0;pointerEvents=1;fontSize=16;" vertex="1" parent="T-HMhwfZyAStWtXB5Q8O-70">
          <mxGeometry x="110" width="60" height="40" as="geometry">
            <mxRectangle width="60" height="40" as="alternateBounds" />
          </mxGeometry>
        </mxCell>
        <mxCell id="T-HMhwfZyAStWtXB5Q8O-73" value="beosztás" style="shape=partialRectangle;html=1;whiteSpace=wrap;connectable=0;strokeColor=inherit;overflow=hidden;fillColor=none;top=0;left=0;bottom=0;right=0;pointerEvents=1;fontSize=16;" vertex="1" parent="T-HMhwfZyAStWtXB5Q8O-70">
          <mxGeometry x="170" width="90" height="40" as="geometry">
            <mxRectangle width="90" height="40" as="alternateBounds" />
          </mxGeometry>
        </mxCell>
        <mxCell id="T-HMhwfZyAStWtXB5Q8O-128" value="tanszék_kód, FK" style="shape=partialRectangle;html=1;whiteSpace=wrap;connectable=0;strokeColor=inherit;overflow=hidden;fillColor=none;top=0;left=0;bottom=0;right=0;pointerEvents=1;fontSize=16;" vertex="1" parent="T-HMhwfZyAStWtXB5Q8O-70">
          <mxGeometry x="260" width="150" height="40" as="geometry">
            <mxRectangle width="150" height="40" as="alternateBounds" />
          </mxGeometry>
        </mxCell>
        <mxCell id="T-HMhwfZyAStWtXB5Q8O-82" value="Tantárgy" style="shape=table;startSize=30;container=1;collapsible=0;childLayout=tableLayout;strokeColor=default;fontSize=16;fontStyle=1" vertex="1" parent="1">
          <mxGeometry x="460" y="860" width="360" height="70" as="geometry" />
        </mxCell>
        <mxCell id="T-HMhwfZyAStWtXB5Q8O-83" value="" style="shape=tableRow;horizontal=0;startSize=0;swimlaneHead=0;swimlaneBody=0;strokeColor=inherit;top=0;left=0;bottom=0;right=0;collapsible=0;dropTarget=0;fillColor=none;points=[[0,0.5],[1,0.5]];portConstraint=eastwest;fontSize=16;" vertex="1" parent="T-HMhwfZyAStWtXB5Q8O-82">
          <mxGeometry y="30" width="360" height="40" as="geometry" />
        </mxCell>
        <mxCell id="T-HMhwfZyAStWtXB5Q8O-84" value="neptunkód,PK" style="shape=partialRectangle;html=1;whiteSpace=wrap;connectable=0;strokeColor=inherit;overflow=hidden;fillColor=none;top=0;left=0;bottom=0;right=0;pointerEvents=1;fontSize=16;" vertex="1" parent="T-HMhwfZyAStWtXB5Q8O-83">
          <mxGeometry width="110" height="40" as="geometry">
            <mxRectangle width="110" height="40" as="alternateBounds" />
          </mxGeometry>
        </mxCell>
        <mxCell id="T-HMhwfZyAStWtXB5Q8O-85" value="név, NN" style="shape=partialRectangle;html=1;whiteSpace=wrap;connectable=0;strokeColor=inherit;overflow=hidden;fillColor=none;top=0;left=0;bottom=0;right=0;pointerEvents=1;fontSize=16;" vertex="1" parent="T-HMhwfZyAStWtXB5Q8O-83">
          <mxGeometry x="110" width="70" height="40" as="geometry">
            <mxRectangle width="70" height="40" as="alternateBounds" />
          </mxGeometry>
        </mxCell>
        <mxCell id="T-HMhwfZyAStWtXB5Q8O-86" value="kredit, NN" style="shape=partialRectangle;html=1;whiteSpace=wrap;connectable=0;strokeColor=inherit;overflow=hidden;fillColor=none;top=0;left=0;bottom=0;right=0;pointerEvents=1;fontSize=16;" vertex="1" parent="T-HMhwfZyAStWtXB5Q8O-83">
          <mxGeometry x="180" width="80" height="40" as="geometry">
            <mxRectangle width="80" height="40" as="alternateBounds" />
          </mxGeometry>
        </mxCell>
        <mxCell id="T-HMhwfZyAStWtXB5Q8O-131" value="lezár. mód." style="shape=partialRectangle;html=1;whiteSpace=wrap;connectable=0;strokeColor=inherit;overflow=hidden;fillColor=none;top=0;left=0;bottom=0;right=0;pointerEvents=1;fontSize=16;" vertex="1" parent="T-HMhwfZyAStWtXB5Q8O-83">
          <mxGeometry x="260" width="100" height="40" as="geometry">
            <mxRectangle width="100" height="40" as="alternateBounds" />
          </mxGeometry>
        </mxCell>
        <mxCell id="T-HMhwfZyAStWtXB5Q8O-95" value="Tanszék" style="shape=table;startSize=30;container=1;collapsible=0;childLayout=tableLayout;strokeColor=default;fontSize=16;fontStyle=1" vertex="1" parent="1">
          <mxGeometry x="80" y="960" width="270" height="70" as="geometry" />
        </mxCell>
        <mxCell id="T-HMhwfZyAStWtXB5Q8O-96" value="" style="shape=tableRow;horizontal=0;startSize=0;swimlaneHead=0;swimlaneBody=0;strokeColor=inherit;top=0;left=0;bottom=0;right=0;collapsible=0;dropTarget=0;fillColor=none;points=[[0,0.5],[1,0.5]];portConstraint=eastwest;fontSize=16;" vertex="1" parent="T-HMhwfZyAStWtXB5Q8O-95">
          <mxGeometry y="30" width="270" height="40" as="geometry" />
        </mxCell>
        <mxCell id="T-HMhwfZyAStWtXB5Q8O-97" value="kód, PK" style="shape=partialRectangle;html=1;whiteSpace=wrap;connectable=0;strokeColor=inherit;overflow=hidden;fillColor=none;top=0;left=0;bottom=0;right=0;pointerEvents=1;fontSize=16;" vertex="1" parent="T-HMhwfZyAStWtXB5Q8O-96">
          <mxGeometry width="100" height="40" as="geometry">
            <mxRectangle width="100" height="40" as="alternateBounds" />
          </mxGeometry>
        </mxCell>
        <mxCell id="T-HMhwfZyAStWtXB5Q8O-98" value="név, NN" style="shape=partialRectangle;html=1;whiteSpace=wrap;connectable=0;strokeColor=inherit;overflow=hidden;fillColor=none;top=0;left=0;bottom=0;right=0;pointerEvents=1;fontSize=16;" vertex="1" parent="T-HMhwfZyAStWtXB5Q8O-96">
          <mxGeometry x="100" width="80" height="40" as="geometry">
            <mxRectangle width="80" height="40" as="alternateBounds" />
          </mxGeometry>
        </mxCell>
        <mxCell id="T-HMhwfZyAStWtXB5Q8O-99" value="kar" style="shape=partialRectangle;html=1;whiteSpace=wrap;connectable=0;strokeColor=inherit;overflow=hidden;fillColor=none;top=0;left=0;bottom=0;right=0;pointerEvents=1;fontSize=16;" vertex="1" parent="T-HMhwfZyAStWtXB5Q8O-96">
          <mxGeometry x="180" width="90" height="40" as="geometry">
            <mxRectangle width="90" height="40" as="alternateBounds" />
          </mxGeometry>
        </mxCell>
        <mxCell id="T-HMhwfZyAStWtXB5Q8O-108" value="O-TT" style="shape=table;startSize=30;container=1;collapsible=0;childLayout=tableLayout;strokeColor=default;fontSize=16;fontStyle=1" vertex="1" parent="1">
          <mxGeometry x="330" y="515" width="420" height="75" as="geometry" />
        </mxCell>
        <mxCell id="T-HMhwfZyAStWtXB5Q8O-109" value="" style="shape=tableRow;horizontal=0;startSize=0;swimlaneHead=0;swimlaneBody=0;strokeColor=inherit;top=0;left=0;bottom=0;right=0;collapsible=0;dropTarget=0;fillColor=none;points=[[0,0.5],[1,0.5]];portConstraint=eastwest;fontSize=16;" vertex="1" parent="T-HMhwfZyAStWtXB5Q8O-108">
          <mxGeometry y="30" width="420" height="45" as="geometry" />
        </mxCell>
        <mxCell id="T-HMhwfZyAStWtXB5Q8O-110" value="tanév/félév" style="shape=partialRectangle;html=1;whiteSpace=wrap;connectable=0;strokeColor=inherit;overflow=hidden;fillColor=none;top=0;left=0;bottom=0;right=0;pointerEvents=1;fontSize=16;" vertex="1" parent="T-HMhwfZyAStWtXB5Q8O-109">
          <mxGeometry width="100" height="45" as="geometry">
            <mxRectangle width="100" height="45" as="alternateBounds" />
          </mxGeometry>
        </mxCell>
        <mxCell id="T-HMhwfZyAStWtXB5Q8O-111" value="oktató_neptunkód, NN FK" style="shape=partialRectangle;html=1;whiteSpace=wrap;connectable=0;strokeColor=inherit;overflow=hidden;fillColor=none;top=0;left=0;bottom=0;right=0;pointerEvents=1;fontSize=16;" vertex="1" parent="T-HMhwfZyAStWtXB5Q8O-109">
          <mxGeometry x="100" width="160" height="45" as="geometry">
            <mxRectangle width="160" height="45" as="alternateBounds" />
          </mxGeometry>
        </mxCell>
        <mxCell id="T-HMhwfZyAStWtXB5Q8O-112" value="tantárgy_neptunkód, NN FK" style="shape=partialRectangle;html=1;whiteSpace=wrap;connectable=0;strokeColor=inherit;overflow=hidden;fillColor=none;top=0;left=0;bottom=0;right=0;pointerEvents=1;fontSize=16;" vertex="1" parent="T-HMhwfZyAStWtXB5Q8O-109">
          <mxGeometry x="260" width="160" height="45" as="geometry">
            <mxRectangle width="160" height="45" as="alternateBounds" />
          </mxGeometry>
        </mxCell>
        <mxCell id="T-HMhwfZyAStWtXB5Q8O-132" value="&lt;b&gt;másik verzió&lt;/b&gt;" style="rounded=1;whiteSpace=wrap;html=1;fillColor=#e1d5e7;strokeColor=#9673a6;" vertex="1" parent="1">
          <mxGeometry y="420" width="120" height="60" as="geometry" />
        </mxCell>
        <mxCell id="T-HMhwfZyAStWtXB5Q8O-138" style="edgeStyle=orthogonalEdgeStyle;rounded=0;orthogonalLoop=1;jettySize=auto;html=1;entryX=0;entryY=0.5;entryDx=0;entryDy=0;" edge="1" parent="1" source="T-HMhwfZyAStWtXB5Q8O-109" target="T-HMhwfZyAStWtXB5Q8O-83">
          <mxGeometry relative="1" as="geometry" />
        </mxCell>
      </root>
    </mxGraphModel>
  </diagram>
</mxfile>
